<svg width="1024" height="1024" viewBox="0 0 1024 1024" fill="none" xmlns="http://www.w3.org/2000/svg">
<rect width="1024" height="1024" fill="none"/>
<rect width="1024" height="1024" rx="227" fill="#17223E"/>
<rect x="405" y="186" width="215" height="276" fill="#86888A"/>
<path d="M451.116 268C452.916 268 454.082 268.2 454.616 268.6C455.216 269 455.516 270.067 455.516 271.8V359.8C455.516 361.933 455.316 363.167 454.916 363.5C454.516 363.833 453.249 364 451.116 364H437.116C435.449 364 434.416 364.1 434.016 364.3C433.682 364.5 433.516 365.467 433.516 367.2V387.4C433.516 389.533 433.849 390.667 434.516 390.8C435.182 390.933 436.516 391 438.516 391H584.116C586.249 391 587.516 390.867 587.916 390.6C588.316 390.267 588.516 389.067 588.516 387V331C588.516 328.8 588.416 327.433 588.216 326.9C588.016 326.3 586.782 326 584.516 326H567.516C564.782 326 563.282 326.333 563.016 327C562.749 327.667 562.549 329.267 562.416 331.8C562.216 339.467 561.216 345.667 559.416 350.4C557.616 355.133 554.449 358.6 549.916 360.8C545.449 362.933 538.982 364 530.516 364H507.916C505.649 364 504.182 363.933 503.516 363.8C502.849 363.6 502.516 362.333 502.516 360V331.8C502.516 329.733 502.949 328.267 503.816 327.4C504.682 326.467 505.782 326 507.116 326H507.716C510.316 326 512.816 326.9 515.216 328.7C517.682 330.433 519.782 332.7 521.516 335.5C523.316 338.233 524.482 341.133 525.016 344.2C525.349 345.867 525.649 347.167 525.916 348.1C526.249 348.967 527.449 349.4 529.516 349.4H540.316C542.182 349.4 543.349 349.133 543.816 348.6C544.282 348.067 544.516 346.933 544.516 345.2V287.2C544.516 285.067 544.249 283.733 543.716 283.2C543.182 282.667 541.849 282.4 539.716 282.4H528.616C527.216 282.4 526.349 282.833 526.016 283.7C525.682 284.5 525.382 285.667 525.116 287.2C524.316 291.867 522.349 296 519.216 299.6C516.082 303.2 511.949 305 506.816 305H506.316C504.716 305 503.682 304.633 503.216 303.9C502.749 303.167 502.516 301.6 502.516 299.2V272.7C502.516 270.567 502.982 269.267 503.916 268.8C504.916 268.267 506.382 268 508.316 268H532.516C539.849 268 545.482 268.933 549.416 270.8C553.416 272.6 556.182 275.567 557.716 279.7C559.316 283.767 560.216 289.2 560.416 296C560.482 297.267 560.682 298.267 561.016 299C561.349 299.667 562.249 300 563.716 300H582.716C584.649 300 585.749 299.833 586.016 299.5C586.349 299.167 586.516 298.067 586.516 296.2V245.8C586.516 243.933 586.282 242.667 585.816 242C585.416 241.333 584.249 241 582.316 241H439.116C437.049 241 435.582 241.2 434.716 241.6C433.916 242 433.516 243.333 433.516 245.6V263.2C433.516 265.2 433.749 266.5 434.216 267.1C434.749 267.7 436.049 268 438.116 268H451.116Z" fill="white"/>
<path d="M134 186H349V462H134V186Z" fill="#6AAA64"/>
<rect x="676" y="186" width="215" height="276" fill="#C9B458"/>
<path d="M877.58 369.7C878.78 367.9 879.314 366.467 879.18 365.4C879.114 364.267 878.18 363 876.38 361.6L866.08 353.6C864.414 352.267 863.18 351.633 862.38 351.7C861.647 351.7 860.714 352.533 859.58 354.2C858.38 355.867 856.98 357.3 855.38 358.5C853.847 359.633 852.314 360.2 850.78 360.2C848.847 360.2 847.447 359.533 846.58 358.2C845.78 356.8 845.18 354.933 844.78 352.6C844.38 350.2 843.947 347.567 843.48 344.7C843.014 341.767 842.214 338.767 841.08 335.7C840.014 332.633 838.347 329.667 836.08 326.8C833.814 323.933 830.647 321.4 826.58 319.2C823.98 317.733 822.98 316.533 823.58 315.6C824.247 314.667 825.814 313.733 828.28 312.8C836.547 309.667 842.38 305.433 845.78 300.1C849.247 294.767 850.98 288.067 850.98 280C850.98 272 848.68 265.1 844.08 259.3C839.547 253.433 832.414 248.933 822.68 245.8C812.947 242.6 800.38 241 784.98 241H698.48C696.747 241 695.547 241.2 694.88 241.6C694.28 242 693.98 243.067 693.98 244.8V262.8C693.98 264.8 694.214 266.167 694.68 266.9C695.214 267.633 696.514 268 698.58 268H710.58C712.714 268 714.147 268.267 714.88 268.8C715.614 269.333 715.98 270.767 715.98 273.1V358.8C715.98 361.067 715.614 362.5 714.88 363.1C714.147 363.7 712.614 364 710.28 364H698.18C696.38 364 695.214 364.267 694.68 364.8C694.214 365.333 693.98 366.533 693.98 368.4V387.2C693.98 388.867 694.28 389.933 694.88 390.4C695.48 390.8 696.614 391 698.28 391H778.98C781.914 391 783.647 390.533 784.18 389.6C784.714 388.667 784.98 386.733 784.98 383.8V368.6C784.98 366.667 784.647 365.433 783.98 364.9C783.38 364.3 782.18 364 780.38 364H766.18C764.647 364 763.714 363.733 763.38 363.2C763.114 362.6 762.98 361.533 762.98 360V333.8C762.98 331.867 763.147 330.6 763.48 330C763.814 329.333 764.914 329 766.78 329H774.98C780.047 329 783.947 330.2 786.68 332.6C789.48 335 791.58 338.167 792.98 342.1C794.38 345.967 795.547 350.267 796.48 355C797.414 359.667 798.514 364.367 799.78 369.1C801.047 373.767 802.914 378.067 805.38 382C807.847 385.867 811.347 389 815.88 391.4C820.414 393.8 826.447 395 833.98 395C844.514 395 853.18 392.633 859.98 387.9C866.78 383.167 872.647 377.1 877.58 369.7ZM768.18 303C765.78 303 764.314 302.867 763.78 302.6C763.247 302.267 762.98 300.867 762.98 298.4V272.8C762.98 270.867 763.214 269.6 763.68 269C764.147 268.333 765.314 268 767.18 268H784.98C788.714 268 791.914 268.833 794.58 270.5C797.314 272.1 799.38 274.267 800.78 277C802.247 279.733 802.98 282.733 802.98 286C802.98 289.267 802.247 292.2 800.78 294.8C799.38 297.333 797.314 299.333 794.58 300.8C791.914 302.267 788.714 303 784.98 303H768.18Z" fill="white"/>
<path d="M196.043 385.9C196.043 388.167 196.41 389.6 197.143 390.2C197.943 390.733 199.376 391 201.443 391H281.443C283.776 391 285.276 390.7 285.943 390.1C286.676 389.433 287.043 387.9 287.043 385.5V369.5C287.043 367.367 286.676 365.933 285.943 365.2C285.21 364.4 283.676 364 281.343 364H269.643C266.51 364 264.61 363.467 263.943 362.4C263.343 361.267 263.043 359.133 263.043 356V271.3C263.043 269.833 263.31 268.767 263.843 268.1C264.376 267.367 265.376 267 266.843 267H268.043C274.71 267 279.876 267.9 283.543 269.7C287.21 271.5 289.81 274.667 291.343 279.2C292.876 283.733 293.743 290.167 293.943 298.5C294.01 300.967 294.376 302.5 295.043 303.1C295.776 303.7 297.443 304 300.043 304H311.843C314.51 304 316.21 303.7 316.943 303.1C317.676 302.433 318.043 300.833 318.043 298.3V245.8C318.043 244.067 317.776 242.833 317.243 242.1C316.71 241.367 315.643 241 314.043 241H169.443C167.31 241 166.043 241.433 165.643 242.3C165.243 243.167 165.043 244.667 165.043 246.8V299.9C165.043 301.833 165.443 303 166.243 303.4C167.043 303.8 168.41 304 170.343 304H182.443C185.043 304 186.776 303.667 187.643 303C188.576 302.267 189.076 300.7 189.143 298.3C189.343 290.033 190.21 283.667 191.743 279.2C193.276 274.667 195.876 271.5 199.543 269.7C203.276 267.9 208.443 267 215.043 267H216.643C217.91 267 218.776 267.333 219.243 268C219.776 268.667 220.043 269.6 220.043 270.8V357.5C220.043 360.167 219.676 361.933 218.943 362.8C218.21 363.6 216.51 364 213.843 364H200.643C198.71 364 197.443 364.333 196.843 365C196.31 365.667 196.043 367 196.043 369V385.9Z" fill="white"/>
<rect x="405" y="557" width="215" height="276" fill="#6AAA64"/>
<path d="M457.673 639C459.673 639 460.873 639.333 461.273 640C461.739 640.6 461.973 641.933 461.973 644V729.7C461.973 731.967 461.639 733.433 460.973 734.1C460.306 734.7 458.873 735 456.673 735H442.873C441.606 735 440.806 735.267 440.473 735.8C440.139 736.333 439.973 737.267 439.973 738.6V757.2C439.973 759.267 440.206 760.6 440.673 761.2C441.206 761.733 442.473 762 444.473 762H581.473C583.606 762 584.873 761.667 585.273 761C585.739 760.333 585.973 758.933 585.973 756.8V696.6C585.973 695 585.706 694 585.173 693.6C584.639 693.2 583.539 693 581.873 693H566.073C563.939 693 562.739 693.233 562.473 693.7C562.206 694.1 562.006 695.333 561.873 697.4C561.539 707.333 559.939 715.033 557.073 720.5C554.206 725.9 550.173 729.667 544.973 731.8C539.773 733.933 533.439 735 525.973 735H513.873C511.539 735 510.139 734.667 509.673 734C509.206 733.267 508.973 731.733 508.973 729.4V643C508.973 641.067 509.306 639.933 509.973 639.6C510.639 639.2 511.939 639 513.873 639H529.673C531.739 639 533.139 638.767 533.873 638.3C534.606 637.767 534.973 636.4 534.973 634.2V616.8C534.973 614.667 534.639 613.333 533.973 612.8C533.373 612.267 532.073 612 530.073 612H444.673C442.406 612 441.039 612.333 440.573 613C440.173 613.667 439.973 615.133 439.973 617.4V635.2C439.973 636.8 440.173 637.833 440.573 638.3C441.039 638.767 442.006 639 443.473 639H457.673Z" fill="white"/>
<path d="M134 557H349V833H134V557Z" fill="#86888A"/>
<rect x="676" y="557" width="215" height="276" fill="#86888A"/>
<path d="M722.116 639C723.916 639 725.082 639.2 725.616 639.6C726.216 640 726.516 641.067 726.516 642.8V730.8C726.516 732.933 726.316 734.167 725.916 734.5C725.516 734.833 724.249 735 722.116 735H708.116C706.449 735 705.416 735.1 705.016 735.3C704.682 735.5 704.516 736.467 704.516 738.2V758.4C704.516 760.533 704.849 761.667 705.516 761.8C706.182 761.933 707.516 762 709.516 762H855.116C857.249 762 858.516 761.867 858.916 761.6C859.316 761.267 859.516 760.067 859.516 758V702C859.516 699.8 859.416 698.433 859.216 697.9C859.016 697.3 857.782 697 855.516 697H838.516C835.782 697 834.282 697.333 834.016 698C833.749 698.667 833.549 700.267 833.416 702.8C833.216 710.467 832.216 716.667 830.416 721.4C828.616 726.133 825.449 729.6 820.916 731.8C816.449 733.933 809.982 735 801.516 735H778.916C776.649 735 775.182 734.933 774.516 734.8C773.849 734.6 773.516 733.333 773.516 731V702.8C773.516 700.733 773.949 699.267 774.816 698.4C775.682 697.467 776.782 697 778.116 697H778.716C781.316 697 783.816 697.9 786.216 699.7C788.682 701.433 790.782 703.7 792.516 706.5C794.316 709.233 795.482 712.133 796.016 715.2C796.349 716.867 796.649 718.167 796.916 719.1C797.249 719.967 798.449 720.4 800.516 720.4H811.316C813.182 720.4 814.349 720.133 814.816 719.6C815.282 719.067 815.516 717.933 815.516 716.2V658.2C815.516 656.067 815.249 654.733 814.716 654.2C814.182 653.667 812.849 653.4 810.716 653.4H799.616C798.216 653.4 797.349 653.833 797.016 654.7C796.682 655.5 796.382 656.667 796.116 658.2C795.316 662.867 793.349 667 790.216 670.6C787.082 674.2 782.949 676 777.816 676H777.316C775.716 676 774.682 675.633 774.216 674.9C773.749 674.167 773.516 672.6 773.516 670.2V643.7C773.516 641.567 773.982 640.267 774.916 639.8C775.916 639.267 777.382 639 779.316 639H803.516C810.849 639 816.482 639.933 820.416 641.8C824.416 643.6 827.182 646.567 828.716 650.7C830.316 654.767 831.216 660.2 831.416 667C831.482 668.267 831.682 669.267 832.016 670C832.349 670.667 833.249 671 834.716 671H853.716C855.649 671 856.749 670.833 857.016 670.5C857.349 670.167 857.516 669.067 857.516 667.2V616.8C857.516 614.933 857.282 613.667 856.816 613C856.416 612.333 855.249 612 853.316 612H710.116C708.049 612 706.582 612.2 705.716 612.6C704.916 613 704.516 614.333 704.516 616.6V634.2C704.516 636.2 704.749 637.5 705.216 638.1C705.749 638.7 707.049 639 709.116 639H722.116Z" fill="white"/>
<path d="M196.043 756.9C196.043 759.167 196.41 760.6 197.143 761.2C197.943 761.733 199.376 762 201.443 762H281.443C283.776 762 285.276 761.7 285.943 761.1C286.676 760.433 287.043 758.9 287.043 756.5V740.5C287.043 738.367 286.676 736.933 285.943 736.2C285.21 735.4 283.676 735 281.343 735H269.643C266.51 735 264.61 734.467 263.943 733.4C263.343 732.267 263.043 730.133 263.043 727V642.3C263.043 640.833 263.31 639.767 263.843 639.1C264.376 638.367 265.376 638 266.843 638H268.043C274.71 638 279.876 638.9 283.543 640.7C287.21 642.5 289.81 645.667 291.343 650.2C292.876 654.733 293.743 661.167 293.943 669.5C294.01 671.967 294.376 673.5 295.043 674.1C295.776 674.7 297.443 675 300.043 675H311.843C314.51 675 316.21 674.7 316.943 674.1C317.676 673.433 318.043 671.833 318.043 669.3V616.8C318.043 615.067 317.776 613.833 317.243 613.1C316.71 612.367 315.643 612 314.043 612H169.443C167.31 612 166.043 612.433 165.643 613.3C165.243 614.167 165.043 615.667 165.043 617.8V670.9C165.043 672.833 165.443 674 166.243 674.4C167.043 674.8 168.41 675 170.343 675H182.443C185.043 675 186.776 674.667 187.643 674C188.576 673.267 189.076 671.7 189.143 669.3C189.343 661.033 190.21 654.667 191.743 650.2C193.276 645.667 195.876 642.5 199.543 640.7C203.276 638.9 208.443 638 215.043 638H216.643C217.91 638 218.776 638.333 219.243 639C219.776 639.667 220.043 640.6 220.043 641.8V728.5C220.043 731.167 219.676 732.933 218.943 733.8C218.21 734.6 216.51 735 213.843 735H200.643C198.71 735 197.443 735.333 196.843 736C196.31 736.667 196.043 738 196.043 740V756.9Z" fill="white"/>
</svg>
